<svg width="32" height="32" viewBox="0 0 32 32" fill="none" xmlns="http://www.w3.org/2000/svg">
<path d="M4.01615 0.0148728L4 0C10.1619 6.30155 10.5234 12.2667 10.0672 15.5487C9.5939 18.9539 8.69026 23.6309 4.5594 32C10.3254 24.041 15.2738 20.0616 20.7818 17.1077C15.6664 10.7553 9.21996 4.8123 4.01615 0.0148728Z" fill="#4773D9"/>
<path d="M23.6204 16.5925C18.277 20.0196 13.4482 26.4025 11.1922 30.8148C13.1712 30.0009 18.5145 28.5445 20.256 28.3302C21.9975 28.116 25.3618 27.9446 27.974 28.8015C23.6204 21.7331 22.5418 20.4051 22.2745 19.2485C22.1017 18.5004 22.4724 17.7492 23.6204 16.5925Z" fill="#F9D347"/>
</svg>
