<svg width="20" height="20" viewBox="0 0 20 20" fill="none" xmlns="http://www.w3.org/2000/svg">
<path d="M13.3334 13.3333V2.5H0.833374V13.3333H13.3334ZM13.3334 13.3333H19.1667V9.16667L16.6667 6.66667H13.3334V13.3333ZM6.66671 15.4167C6.66671 16.5673 5.73397 17.5 4.58337 17.5C3.43278 17.5 2.50004 16.5673 2.50004 15.4167C2.50004 14.2661 3.43278 13.3333 4.58337 13.3333C5.73397 13.3333 6.66671 14.2661 6.66671 15.4167ZM17.5 15.4167C17.5 16.5673 16.5673 17.5 15.4167 17.5C14.2661 17.5 13.3334 16.5673 13.3334 15.4167C13.3334 14.2661 14.2661 13.3333 15.4167 13.3333C16.5673 13.3333 17.5 14.2661 17.5 15.4167Z" stroke="#4773D9" stroke-width="1.66667" stroke-linecap="round" stroke-linejoin="round"/>
</svg>
