<svg width="150" height="13" viewBox="0 0 150 13" fill="none" xmlns="http://www.w3.org/2000/svg">
<path d="M5.80692 0.729216L1.95294 0.872522L1.28899 2.60275L0.546789 2.49814L0.833207 0.0649414H7.148L7.44739 0.624601L2.49983 8.11981L1.6275 9.0822L6.13236 8.84788L6.80949 6.80488L7.57763 6.97434L7.27814 9.77157H0.351485L0 9.19936L5.05175 1.6529L5.80692 0.729216Z" fill="black"/>
<path d="M10.0163 0.911264L8.94862 0.755395V0.104736H15.5758L15.7581 2.12158H15.0159L14.6384 0.858956L11.4093 0.780503V4.45016L13.5837 4.41146L13.7661 3.33086H14.4821V6.3237H13.7661L13.5837 5.2044L11.4093 5.16569V9.04353L15.081 8.91277L15.7711 7.27355L16.5392 7.50788L16.1617 9.77161H8.93555V9.13455L10.0163 9.00379V0.911264Z" fill="black"/>
<path d="M18.9918 0.911264L17.7809 0.755395V0.104736H21.6089V0.755395L20.398 0.911264V9.00379L21.6089 9.14709V9.77161H17.794V9.13455L18.9918 9.00379V0.911264Z" fill="black"/>
<path d="M24.2951 0.911264L23.2406 0.755395V0.104736H26.9773V0.755395L25.6883 0.911264V9.00379L29.0475 8.88661L29.8156 6.70135L30.6098 6.81851L30.1541 9.77161H23.2145V9.13455L24.2951 9.00379V0.911264Z" fill="black"/>
<path d="M32.7815 0.911264L31.7138 0.755395V0.104736H38.341L38.5232 2.12158H37.7811L37.4035 0.858956L34.1746 0.780503V4.45016L36.3489 4.41146L36.5312 3.33086H37.2473V6.3237H36.5312L36.3489 5.2044L34.1746 5.16569V9.04353L37.8462 8.91277L38.5363 7.27355L39.3045 7.50788L38.9269 9.77161H31.7008V9.13455L32.7815 9.00379V0.911264Z" fill="black"/>
<path d="M41.5356 0.911264L40.494 0.755395V0.104736H42.9158L47.2514 6.45343L47.9806 7.83321V0.911264L46.8479 0.755395V0.104736H49.9205V0.755395L48.8789 0.911264V9.77161H47.8504L43.4236 3.27961L42.421 1.56192V9.00379L43.6579 9.13455V9.77161H40.494V9.13455L41.5356 8.99122V0.911264Z" fill="black"/>
<path d="M53.6461 0.104736H57.1093V0.755395L55.9506 0.911264L58.0988 7.01307L58.5807 8.60103L59.0103 6.98692L60.9502 0.911264L59.9216 0.755395V0.104736H62.8251V0.755395L61.9918 0.911264L58.9061 9.87622H57.7734L54.4402 0.911264L53.6461 0.755395V0.104736Z" fill="black"/>
<path d="M66.6129 0.026123H68.0451L71.209 9.00362L72.0163 9.13438V9.77144H68.579V9.13438L69.6597 9.00362L69.0477 7.07882H65.2459L64.634 9.00362L65.7537 9.13438V9.77144H62.6679V9.13438L63.4752 9.00362L66.6129 0.026123ZM67.4333 2.10782L67.1077 0.963411L66.7953 2.13398L65.4802 6.311H68.8003L67.4333 2.10782Z" fill="black"/>
<path d="M73.805 0.911264L72.7634 0.755395V0.104736H75.1852L79.5208 6.45343L80.2499 7.83321V0.911264L79.1172 0.755395V0.104736H82.1898V0.755395L81.1483 0.911264V9.77161H80.1197L75.6929 3.27961L74.6904 1.56192V9.00379L75.9272 9.13455V9.77161H72.7634V9.13455L73.805 8.99122V0.911264Z" fill="black"/>
<path d="M85.9154 0.104736H89.3787V0.755395L88.2199 0.911264L90.3681 7.01307L90.85 8.60103L91.2796 6.98692L93.2196 0.911264L92.1909 0.755395V0.104736H95.0941V0.755395L94.2615 0.911264L91.1754 9.87622H90.0427L86.7096 0.911264L85.9154 0.755395V0.104736Z" fill="black"/>
<path d="M95.7051 9.13442L96.7857 9.00366V0.911142L95.771 0.741674V0.104615H97.4761C97.7188 0.104615 98.0494 0.0868282 98.4657 0.0523074C98.8998 0.0177866 99.2377 0 99.4814 0C100.758 0 101.665 0.208171 102.202 0.624513C102.749 1.03249 103.022 1.67897 103.022 2.56396C103.022 3.17906 102.849 3.74289 102.501 4.25443C102.164 4.76701 101.695 5.11326 101.096 5.29528C101.374 5.44278 101.629 5.69908 101.863 6.06311C102.107 6.41878 102.402 6.91776 102.749 7.56006C103.018 8.04544 103.222 8.40112 103.361 8.62707C103.509 8.85198 103.648 8.97751 103.778 9.00366L104.285 9.13442V9.77148H102.489C102.35 9.77148 102.194 9.62398 102.02 9.32898C101.847 9.02562 101.617 8.56116 101.33 7.93665C101.017 7.25147 100.744 6.70959 100.51 6.31104C100.284 5.90306 100.059 5.64258 99.8329 5.5296C98.904 5.5296 98.3527 5.52542 98.1791 5.51705V9.00366L99.4678 9.13442V9.77148H95.7051V9.13442ZM99.7283 4.82769C100.284 4.82769 100.722 4.64566 101.043 4.28057C101.364 3.91654 101.525 3.37468 101.525 2.65497C101.525 2.02105 101.36 1.53983 101.031 1.21032C100.71 0.872432 100.15 0.702966 99.3507 0.702966C99.0735 0.702966 98.7952 0.719707 98.518 0.755273C98.3443 0.772011 98.2314 0.780382 98.1791 0.780382V4.81409C98.3098 4.8235 98.5787 4.82769 98.9866 4.82769H99.7283Z" fill="black"/>
<path d="M106.448 0.911264L105.237 0.755395V0.104736H109.066V0.755395L107.854 0.911264V9.00379L109.066 9.14709V9.77161H105.251V9.13455L106.448 9.00379V0.911264Z" fill="black"/>
<path d="M109.967 11.5541C110.349 11.4412 110.692 11.2382 110.997 10.9432C111.3 10.6566 111.522 10.3009 111.66 9.87622C111.773 9.5467 111.847 9.16488 111.882 8.73076C111.916 8.28826 111.934 7.61144 111.934 6.70135V0.92381L110.684 0.755395V0.104736H114.512V0.755395L113.327 0.92381V6.80491C113.327 7.4901 113.318 8.04138 113.301 8.45773C113.283 8.87407 113.245 9.22972 113.184 9.52472C113.027 10.2183 112.685 10.7915 112.155 11.2424C111.625 11.6933 111.013 11.9799 110.319 12.1012L109.967 11.5541Z" fill="black"/>
<path d="M116.971 0.911264L115.943 0.755395V0.104736H119.484V0.755395L118.364 0.911264V4.41146H122.947V0.911264L121.893 0.755395V0.104736H125.381V0.755395L124.353 0.911264V9.00379L125.381 9.13455V9.77161H121.879V9.13455L122.947 9.00379V5.218H118.364V9.00379L119.496 9.13455V9.77161H115.916V9.13455L116.971 9.00379V0.911264Z" fill="black"/>
<path d="M127.987 0.911264L126.919 0.755395V0.104736H133.547L133.729 2.12158H132.986L132.61 0.858956L129.381 0.780503V4.45016L131.554 4.41146L131.737 3.33086H132.453V6.3237H131.737L131.554 5.2044L129.381 5.16569V9.04353L133.052 8.91277L133.742 7.27355L134.511 7.50788L134.133 9.77161H126.907V9.13455L127.987 9.00379V0.911264Z" fill="black"/>
<path d="M136.963 0.911264L135.752 0.755395V0.104736H139.58V0.755395L138.369 0.911264V9.00379L139.58 9.14709V9.77161H135.765V9.13455L136.963 9.00379V0.911264Z" fill="black"/>
<path d="M142.24 0.911142L141.224 0.755273V0.104615H142.931C143.199 0.104615 143.585 0.0868282 144.089 0.0523074C144.593 0.0177866 144.97 0 145.221 0C146.837 0 148.034 0.40798 148.815 1.22288C149.606 2.03046 150 3.16651 150 4.63207C150 5.65619 149.796 6.56628 149.388 7.36445C148.988 8.15424 148.425 8.76933 147.695 9.21182C146.966 9.65432 146.128 9.8761 145.183 9.8761C144.975 9.8761 144.619 9.85831 144.115 9.82379C143.594 9.78927 143.204 9.77148 142.943 9.77148H141.16V9.13442L142.24 9.00366V0.911142ZM143.62 9.04341C143.924 9.11245 144.315 9.14697 144.793 9.14697H145.183C145.833 9.1386 146.407 8.97332 146.902 8.65322C147.405 8.33207 147.795 7.85505 148.073 7.22112C148.351 6.57987 148.489 5.80368 148.489 4.89254C148.489 3.52217 148.19 2.48131 147.591 1.76998C147.001 1.05864 146.108 0.702966 144.91 0.702966C144.658 0.702966 144.358 0.719707 144.011 0.755273C143.864 0.780379 143.733 0.793981 143.62 0.793981V9.04341Z" fill="black"/>
</svg>
